<?xml version="1.0" encoding="utf-8"?>
<!-- Generator: Adobe Illustrator 25.4.1, SVG Export Plug-In . SVG Version: 6.00 Build 0)  -->
<svg version="1.1" id="Layer_1" xmlns="http://www.w3.org/2000/svg" xmlns:xlink="http://www.w3.org/1999/xlink" x="0px" y="0px"
	 width="140px" height="30px" viewBox="0 0 140 30" enable-background="new 0 0 140 30" xml:space="preserve">
<g>
	<g id="Group_521_00000004522666327804075870000002143835306209386645_" transform="translate(-215.423 -72.381)">
		<g id="Group_519_00000013165936634791117340000006053548679410243459_" transform="translate(215.423 72.381)">
			<path id="Path_333_00000038415167671676094720000013130028982454032017_" fill="#FFCC07" d="M1.466,1.061l19.454,0.016
				L20.897,28.95L1.443,28.933L1.466,1.061z M18.104,3.881L4.27,3.87L4.252,26.13l13.836,0.012L18.104,3.881z"/>
		</g>
	</g>
	<g>
		<path d="M37.857,13.843l-2.742-1.277c-0.996-0.499-1.613-0.986-1.612-1.874c0.001-1.175,0.977-1.934,2.488-1.934
			c0.001,0,0.002,0,0.004,0c1.584,0.001,3.333,0.845,4.8,2.314l0.147,0.148l0.003-3.617l-0.028-0.026
			c-0.875-0.811-2.658-1.758-4.8-1.76c-0.003,0-0.005,0-0.007,0c-3.449,0-5.859,2.112-5.862,5.137
			c-0.002,2.379,1.422,3.552,3.561,4.583l2.935,1.398c1.197,0.6,1.805,1.092,1.804,2.115c-0.001,1.326-1.129,2.15-2.944,2.15
			c-0.002,0-0.004,0-0.005,0c-1.702-0.002-3.514-0.774-5.385-2.297l-0.141-0.115l-0.003,3.546l0.033,0.026
			c1.084,0.86,3.077,1.779,5.421,1.781c0.003,0,0.005,0,0.007,0c1.735,0,3.313-0.51,4.443-1.437c1.195-0.98,1.827-2.343,1.829-3.941
			C41.806,16.19,40.295,14.973,37.857,13.843z"/>
		<polygon points="82.804,23.826 82.804,23.912 86.227,23.915 86.242,6.253 86.242,6.166 82.819,6.163 		"/>
		<polygon points="93.921,16.307 100.976,16.313 100.978,13.419 93.924,13.413 93.928,9.036 101.584,9.042 101.586,6.173 
			90.579,6.163 90.564,23.826 90.564,23.912 101.619,23.921 101.622,21.052 93.917,21.045 		"/>
		<polygon points="104.847,6.163 104.845,9.033 110.479,9.038 110.466,23.831 110.466,23.917 113.89,23.92 113.902,9.041 
			119.512,9.045 119.514,6.176 104.934,6.163 		"/>
		<polygon points="135.202,6.174 130.69,12.775 126.037,6.203 126.011,6.166 122.348,6.163 128.989,15.961 128.983,23.918 
			132.43,23.921 132.436,15.964 138.979,6.312 139.07,6.177 		"/>
		<path d="M76.841,18.837c-0.982,1.369-2.458,2.153-4.049,2.153c-0.001,0-0.003,0-0.004,0c-2.928-0.003-5.219-2.631-5.216-5.985
			c0.001-1.644,0.545-3.163,1.532-4.275c0.973-1.097,2.283-1.701,3.69-1.701c0.002,0,0.003,0,0.004,0
			c1.585,0.001,3.056,0.781,4.036,2.14l0.065,0.09l2.077-2.461l-0.048-0.056c-1.602-1.865-3.778-2.893-6.127-2.895
			c-0.002,0-0.004,0-0.007,0c-4.631,0-8.401,4.106-8.406,9.156c-0.002,2.447,0.866,4.747,2.445,6.477
			c1.584,1.735,3.698,2.692,5.952,2.694c0.002,0,0.004,0,0.007,0c2.355,0,4.536-1.031,6.141-2.903l0.048-0.056l-2.075-2.468
			L76.841,18.837z"/>
		<path d="M59.243,8.828l0.009-0.01l-0.05-0.057c-1.544-1.74-3.637-2.764-5.898-2.882c-0.141-0.007-0.283-0.012-0.443-0.012
			c-0.002,0-0.005,0-0.007,0c-0.131,0-0.262,0.005-0.392,0.011l-0.033,0.001c-2.265,0.115-4.365,1.141-5.913,2.89l-0.042,0.067l0,0
			c-1.468,1.692-2.277,3.886-2.279,6.187c-0.002,2.31,0.809,4.512,2.285,6.209l-0.009,0.01l0.051,0.057
			c1.544,1.74,3.637,2.764,5.898,2.882c0.141,0.007,0.283,0.012,0.443,0.012c0.002,0,0.005,0,0.007,0
			c0.132,0,0.262-0.005,0.392-0.011l0.033-0.001c2.264-0.115,4.364-1.141,5.913-2.89l0.042-0.067l0,0
			c1.468-1.692,2.277-3.886,2.279-6.187C61.53,12.727,60.719,10.525,59.243,8.828z M53.29,24.096L53.29,24.096L53.29,24.096
			L53.29,24.096z M53.4,20.982l-0.013,0.001c-0.175,0.018-0.353,0.028-0.528,0.028c-3.021-0.006-5.386-2.634-5.383-5.985
			c0.003-3.142,2.037-5.643,4.837-5.946l0.022-0.002c0.175-0.018,0.352-0.028,0.528-0.028c3.021,0.006,5.386,2.635,5.383,5.985
			C58.244,18.177,56.209,20.678,53.4,20.982z"/>
	</g>
</g>
</svg>
