<?xml version="1.0" encoding="UTF-8"?>
<svg width="31px" height="27px" viewBox="0 0 31 27" version="1.1" xmlns="http://www.w3.org/2000/svg" xmlns:xlink="http://www.w3.org/1999/xlink">
    <!-- Generator: Sketch 53.2 (72643) - https://sketchapp.com -->
    <title>NGP Icons/user</title>
    <desc>Created with Sketch.</desc>
    <defs>
        <path d="M16.1295484,19.489376 C12.2200982,19.489376 9.29759253,14.698383 9.29759253,10.4823093 C9.29759253,6.26623548 12.1721883,3.2 16.1199665,3.2 C20.0677446,3.2 22.9519224,6.26623548 22.9519224,10.4823093 C22.9519224,14.698383 20.0294167,19.489376 16.1295484,19.489376 Z M16.1295484,4.67562582 C12.9483291,4.63729788 10.7348904,7.03279435 10.7348904,10.4823093 C10.7348904,14.3151036 13.3507725,18.0137501 16.1295484,18.0137501 C18.9083244,18.0137501 21.5242065,14.3534315 21.5242065,10.4823093 C21.5146245,7.03279435 19.2724398,4.63729788 16.1295484,4.63729788 L16.1295484,4.67562582 Z M30.9720446,28.975542 L31.1924302,29.8666667 L1.06666667,29.8666667 L1.27747036,28.994706 C2.49438256,23.8491795 4.58325548,18.5982513 10.6869805,17.9754222 C11.0584356,18.4613115 11.4755581,18.9105203 11.9326386,19.3169002 C7.17997365,19.3169002 4.59283747,21.8848724 2.89682597,28.4102048 L29.3526889,28.4102048 C27.7620793,22.7759971 24.3988023,19.3169002 20.4414421,19.3169002 C20.8871523,18.918253 21.294567,18.4787585 21.6583543,18.0041682 C25.9798299,18.6557432 29.4772548,22.7280872 30.9720446,28.975542 Z" id="path-1"></path>
    </defs>
    <g id="Wires" stroke="none" stroke-width="1" fill="none" fill-rule="evenodd">
        <g id="NGP-Icons/user" transform="translate(-1.000000, -3.000000)">
            <mask id="mask-2" fill="white">
                <use xlink:href="#path-1"></use>
            </mask>
            <use id="Shape" fill="#000000" fill-rule="nonzero" xlink:href="#path-1"></use>
            <g id="Colors-/-Black" mask="url(#mask-2)" fill="#000000" fill-rule="evenodd">
                <rect id="Rectangle-2" x="0" y="0" width="32" height="32"></rect>
            </g>
        </g>
    </g>
</svg>